<svg width="52" height="52" viewBox="0 0 52 52" fill="none" xmlns="http://www.w3.org/2000/svg">
<rect width="52" height="52" rx="10" fill="#EF8B16"/>
<mask id="mask0_1772_55524" style="mask-type:alpha" maskUnits="userSpaceOnUse" x="8" y="8" width="36" height="36">
<rect x="8" y="8" width="36" height="36" fill="#EF8B16"/>
</mask>
<g mask="url(#mask0_1772_55524)">
<path d="M15.3123 23.6865C23.4056 24.8034 28.1036 24.8215 36.6873 23.6865V35.2649C36.6873 36.1462 36.1093 36.9275 35.2609 37.1661C27.9638 39.2186 23.4738 39.1461 16.7177 37.1755C15.8791 36.9308 15.3123 36.1547 15.3123 35.2811V23.6865Z" fill="#F9F9F9"/>
<path d="M8.47182 19.7353L25.9367 13.082C26.0753 13.0292 26.2285 13.0296 26.3669 13.0832L43.5545 19.7365C44.0657 19.9343 44.0657 20.6577 43.5545 20.8555L26.3669 27.5088C26.2285 27.5624 26.0753 27.5628 25.9367 27.51L8.47182 20.8567C7.95661 20.6604 7.95662 19.9316 8.47182 19.7353Z" fill="#F9F9F9" stroke="#EF8B16" stroke-width="0.8"/>
<path d="M11.947 22.6614L11.739 22.5904C11.6092 22.5461 11.4744 22.6425 11.4744 22.7797V27.6757C11.4744 27.7861 11.5639 27.8757 11.6744 27.8757H11.8824C11.9928 27.8757 12.0824 27.7861 12.0824 27.6757V22.8507C12.0824 22.7652 12.028 22.6891 11.947 22.6614Z" fill="#F9F9F9"/>
<circle cx="11.7782" cy="29.0924" r="0.608" fill="#F9F9F9"/>
<path d="M10.7013 33.4303L11.2803 30.7389C11.326 30.5267 11.5732 30.4364 11.7901 30.4278C11.9993 30.4194 12.2267 30.5089 12.2707 30.7135L12.8509 33.4103C12.9374 33.8123 12.7781 34.2466 12.4023 34.4133C11.9551 34.6116 11.5789 34.6183 11.1299 34.4138C10.7651 34.2476 10.617 33.8222 10.7013 33.4303Z" fill="#F9F9F9"/>
<path d="M27.4556 34.375V29.625L22.7056 34.375H18.875L23.625 29.625H27.4556H30.75V34.375H27.4556Z" fill="#EF8B16"/>
</g>
</svg>
