<svg width="52" height="52" viewBox="0 0 52 52" fill="none" xmlns="http://www.w3.org/2000/svg">
<rect width="52" height="52" rx="10" fill="#EF8B16"/>
<mask id="mask0_1772_55516" style="mask-type:alpha" maskUnits="userSpaceOnUse" x="8" y="8" width="36" height="36">
<rect x="8" y="8" width="36" height="36" fill="#EF8B16"/>
</mask>
<g mask="url(#mask0_1772_55516)">
<path fill-rule="evenodd" clip-rule="evenodd" d="M13.5999 16C11.3907 16 9.59985 17.7909 9.59985 20V32.2721C9.59985 34.4812 11.3907 36.2721 13.5999 36.2721H29.7333C31.9424 36.2721 33.7333 34.4812 33.7333 32.2721V30.096L38.5999 32.9057C39.9332 33.6755 41.5999 32.7133 41.5999 31.1737V21.3918C41.5999 19.8522 39.9332 18.8899 38.5999 19.6597L33.7333 22.4694V20C33.7333 17.7909 31.9424 16 29.7333 16H13.5999Z" fill="#F9F9F9"/>
<path d="M24.2265 30.5793V21.792L18.0001 30.5793H12.9788L19.2052 21.792H24.2265H28.5448V30.5793H24.2265Z" fill="#EF8B16"/>
</g>
</svg>
