<svg width="52" height="52" viewBox="0 0 52 52" fill="none" xmlns="http://www.w3.org/2000/svg">
<rect width="52" height="52" rx="10" fill="#EF8B16"/>
<mask id="mask0_1772_55528" style="mask-type:alpha" maskUnits="userSpaceOnUse" x="8" y="8" width="36" height="36">
<rect x="8" y="8" width="36" height="36" fill="#EF8B16"/>
</mask>
<g mask="url(#mask0_1772_55528)">
<path fill-rule="evenodd" clip-rule="evenodd" d="M29.1723 29.5518H13.8984C12.7938 29.5518 11.8984 28.6564 11.8984 27.5518V13.5186C11.8984 12.414 12.7938 11.5186 13.8984 11.5186H24.4267C24.846 11.5186 25.186 11.1786 25.186 10.7593C25.186 10.3399 25.5259 10 25.9453 10C26.3646 10 26.7046 10.3399 26.7046 10.7593C26.7046 11.1786 27.0445 11.5186 27.4639 11.5186H37.9922C39.0968 11.5186 39.9922 12.414 39.9922 13.5186V28.6027C39.9922 29.1269 39.5673 29.5518 39.0431 29.5518C38.5189 29.5518 38.094 29.1269 38.094 28.6027V27.8434C38.094 26.8998 37.3291 26.135 36.3856 26.135H32.5891C31.6456 26.135 30.8807 26.8998 30.8807 27.8434C30.8807 28.7869 30.1158 29.5518 29.1723 29.5518ZM41.67 30.5013H10.6001C10.2687 30.5013 10.0001 30.7699 10.0001 31.1013V31.4198C10.0001 31.7512 10.2687 32.0198 10.6001 32.0198H20.5013C20.9716 32.0198 21.2591 32.5363 21.0113 32.936L16.0225 40.9824C15.8434 41.2712 15.9397 41.651 16.2347 41.8196L16.5108 41.9773C16.7953 42.1399 17.1576 42.0441 17.3246 41.7622L22.9236 32.314C23.0316 32.1316 23.2278 32.0198 23.4398 32.0198H28.8303C29.0423 32.0198 29.2385 32.1316 29.3465 32.314L34.924 41.726C35.0993 42.0218 35.4869 42.1101 35.773 41.9193L35.9095 41.8284C36.176 41.6507 36.2559 41.2951 36.0912 41.0204L31.236 32.9285C30.9961 32.5286 31.2841 32.0198 31.7505 32.0198H41.67C42.0014 32.0198 42.27 31.7512 42.27 31.4198V31.1013C42.27 30.7699 42.0014 30.5013 41.67 30.5013ZM32.0196 28.0837V28.3616C32.0196 28.9139 32.4673 29.3616 33.0196 29.3616H35.955C36.5073 29.3616 36.955 28.9139 36.955 28.3616V28.0837C36.955 27.5314 36.5073 27.0837 35.955 27.0837H33.0196C32.4673 27.0837 32.0196 27.5314 32.0196 28.0837Z" fill="#F9F9F9"/>
<path d="M29.1563 24.0468V16.0742L23.3857 24.0468H18.7319L24.5026 16.0742H29.1563H33.1585V24.0468H29.1563Z" fill="#EF8B16"/>
</g>
</svg>
