<svg width="23" height="26" viewBox="0 0 23 26" fill="none" xmlns="http://www.w3.org/2000/svg">
<path d="M1.27778 26C0.915741 26 0.612269 25.8754 0.367361 25.6262C0.122454 25.3771 0 25.0683 0 24.7V18.2C0 17.485 0.250232 16.8729 0.750695 16.3638C1.25116 15.8546 1.85278 15.6 2.55556 15.6V10.4C2.55556 9.685 2.80579 9.07292 3.30625 8.56375C3.80671 8.05458 4.40833 7.8 5.11111 7.8H10.2222V5.915C9.83889 5.655 9.53009 5.34083 9.29583 4.9725C9.06157 4.60417 8.94444 4.16 8.94444 3.64C8.94444 3.315 9.00833 2.99542 9.13611 2.68125C9.26389 2.36708 9.45556 2.08 9.71111 1.82L11.5 0L13.2889 1.82C13.5444 2.08 13.7361 2.36708 13.8639 2.68125C13.9917 2.99542 14.0556 3.315 14.0556 3.64C14.0556 4.16 13.9384 4.60417 13.7042 4.9725C13.4699 5.34083 13.1611 5.655 12.7778 5.915V7.8H17.8889C18.5917 7.8 19.1933 8.05458 19.6938 8.56375C20.1942 9.07292 20.4444 9.685 20.4444 10.4V15.6C21.1472 15.6 21.7488 15.8546 22.2493 16.3638C22.7498 16.8729 23 17.485 23 18.2V24.7C23 25.0683 22.8775 25.3771 22.6326 25.6262C22.3877 25.8754 22.0843 26 21.7222 26H1.27778ZM5.11111 15.6H17.8889V10.4H5.11111V15.6ZM2.55556 23.4H20.4444V18.2H2.55556V23.4Z" fill="#393939" fill-opacity="0.7"/>
</svg>
