<svg width="23" height="25" viewBox="0 0 23 25" fill="none" xmlns="http://www.w3.org/2000/svg">
<path d="M1.27778 25C0.915741 25 0.612269 24.8802 0.367361 24.6406C0.122454 24.401 0 24.1042 0 23.75V18.75C0 18.0625 0.250232 17.474 0.750695 16.9844C1.25116 16.4948 1.85278 16.25 2.55556 16.25H20.4444C21.1472 16.25 21.7488 16.4948 22.2493 16.9844C22.7498 17.474 23 18.0625 23 18.75V23.75C23 24.1042 22.8775 24.401 22.6326 24.6406C22.3877 24.8802 22.0843 25 21.7222 25H1.27778ZM2.55556 13.75V10C2.55556 9.3125 2.80579 8.72396 3.30625 8.23438C3.80671 7.74479 4.40833 7.5 5.11111 7.5H10.2222V5.6875C9.83889 5.4375 9.53009 5.13542 9.29583 4.78125C9.06157 4.42708 8.94444 4 8.94444 3.5C8.94444 3.1875 9.00833 2.88021 9.13611 2.57812C9.26389 2.27604 9.45556 2 9.71111 1.75L11.5 0L13.2889 1.75C13.5444 2 13.7361 2.27604 13.8639 2.57812C13.9917 2.88021 14.0556 3.1875 14.0556 3.5C14.0556 4 13.9384 4.42708 13.7042 4.78125C13.4699 5.13542 13.1611 5.4375 12.7778 5.6875V7.5H17.8889C18.5917 7.5 19.1933 7.74479 19.6938 8.23438C20.1942 8.72396 20.4444 9.3125 20.4444 10V13.75H2.55556Z" fill="#A44BFD"/>
</svg>
