<svg width="23" height="23" viewBox="0 0 23 23" fill="none" xmlns="http://www.w3.org/2000/svg">
<path d="M11.5 0C5.14855 0 0 5.14855 0 11.5C0 17.8514 5.14855 23 11.5 23C17.8514 23 23 17.8514 23 11.5C23 5.14855 17.8514 0 11.5 0ZM14.3658 8.464C14.3322 8.69031 14.2102 8.89402 14.0264 9.03032C13.8427 9.16663 13.6123 9.22435 13.386 9.1908C13.1597 9.15725 12.956 9.03517 12.8197 8.85143C12.6834 8.66768 12.6257 8.43731 12.6592 8.211C12.8455 6.9575 13.9507 6.0375 15.2375 6.0375C16.5243 6.0375 17.6295 6.9575 17.8158 8.211C17.8493 8.43731 17.7916 8.66768 17.6553 8.85143C17.519 9.03517 17.3153 9.15725 17.089 9.1908C16.8627 9.22435 16.6323 9.16663 16.4486 9.03032C16.2648 8.89402 16.1427 8.69031 16.1092 8.464C16.054 8.09255 15.7067 7.7625 15.2375 7.7625C14.7683 7.7625 14.421 8.09255 14.3658 8.464ZM11.5 18.4C7.8867 18.4 5.47745 15.6825 5.175 12.3625H17.825C17.5225 15.6825 15.1133 18.4 11.5 18.4ZM7.7625 7.7625C7.2933 7.7625 6.946 8.09255 6.8908 8.464C6.85725 8.69031 6.73517 8.89402 6.55142 9.03032C6.36768 9.16663 6.13731 9.22435 5.911 9.1908C5.68469 9.15725 5.48098 9.03517 5.34468 8.85143C5.20837 8.66768 5.15065 8.43731 5.1842 8.211C5.3705 6.9575 6.47565 6.0375 7.7625 6.0375C9.04935 6.0375 10.1545 6.9575 10.3408 8.211C10.3574 8.32306 10.3518 8.43729 10.3243 8.54717C10.2967 8.65706 10.2478 8.76044 10.1803 8.85143C10.1128 8.94241 10.0281 9.01921 9.93091 9.07744C9.83375 9.13567 9.72606 9.17419 9.614 9.1908C9.50194 9.20741 9.38771 9.20179 9.27783 9.17426C9.16794 9.14672 9.06456 9.09781 8.97357 9.03032C8.88259 8.96283 8.80579 8.87808 8.74756 8.78091C8.68933 8.68374 8.65081 8.57606 8.6342 8.464C8.579 8.09255 8.2317 7.7625 7.7625 7.7625Z" fill="#FDCA4B"/>
</svg>
