<svg width="25" height="25" viewBox="0 0 25 25" fill="none" xmlns="http://www.w3.org/2000/svg">
<path d="M12.5 1C6.14855 1 1 6.14855 1 12.5C1 18.8514 6.14855 24 12.5 24C18.8514 24 24 18.8514 24 12.5C24 6.14855 18.8514 1 12.5 1ZM15.3658 9.464C15.3322 9.69031 15.2102 9.89402 15.0264 10.0303C14.8427 10.1666 14.6123 10.2243 14.386 10.1908C14.1597 10.1572 13.956 10.0352 13.8197 9.85143C13.6834 9.66768 13.6257 9.43731 13.6592 9.211C13.8455 7.9575 14.9506 7.0375 16.2375 7.0375C17.5243 7.0375 18.6295 7.9575 18.8158 9.211C18.8494 9.43731 18.7916 9.66768 18.6553 9.85143C18.519 10.0352 18.3153 10.1572 18.089 10.1908C17.8627 10.2243 17.6323 10.1666 17.4486 10.0303C17.2648 9.89402 17.1427 9.69031 17.1092 9.464C17.054 9.09255 16.7067 8.7625 16.2375 8.7625C15.7683 8.7625 15.421 9.09255 15.3658 9.464ZM12.5 19.4C8.8867 19.4 6.47745 16.6825 6.175 13.3625H18.825C18.5225 16.6825 16.1133 19.4 12.5 19.4ZM8.7625 8.7625C8.2933 8.7625 7.946 9.09255 7.8908 9.464C7.85725 9.69031 7.73517 9.89402 7.55142 10.0303C7.36768 10.1666 7.13731 10.2243 6.911 10.1908C6.68469 10.1572 6.48098 10.0352 6.34468 9.85143C6.20838 9.66768 6.15065 9.43731 6.1842 9.211C6.3705 7.9575 7.47565 7.0375 8.7625 7.0375C10.0493 7.0375 11.1545 7.9575 11.3408 9.211C11.3574 9.32306 11.3518 9.43729 11.3243 9.54717C11.2967 9.65706 11.2478 9.76044 11.1803 9.85143C11.1128 9.94241 11.0281 10.0192 10.9309 10.0774C10.8337 10.1357 10.7261 10.1742 10.614 10.1908C10.5019 10.2074 10.3877 10.2018 10.2778 10.1743C10.1679 10.1467 10.0646 10.0978 9.97357 10.0303C9.88259 9.96283 9.80579 9.87808 9.74756 9.78091C9.68933 9.68374 9.65081 9.57606 9.6342 9.464C9.579 9.09255 9.2317 8.7625 8.7625 8.7625Z" stroke="#393939" stroke-opacity="0.7"/>
</svg>
