<svg width="25" height="23" viewBox="0 0 25 23" fill="none" xmlns="http://www.w3.org/2000/svg">
<path d="M12.5 1.99628C11.0456 0.636804 9.1395 -0.0770944 7.18765 0.00661047C5.2358 0.0903153 3.39241 0.965009 2.05004 2.44442C0.707677 3.92383 -0.027601 5.89106 0.000792784 7.92718C0.0291866 9.9633 0.819009 11.9074 2.20206 13.3455L10.7335 22.2374C11.2021 22.7257 11.8375 23 12.5 23C13.1625 23 13.7979 22.7257 14.2665 22.2374L22.7979 13.3455C24.181 11.9074 24.9708 9.9633 24.9992 7.92718C25.0276 5.89106 24.2923 3.92383 22.95 2.44442C21.6076 0.965009 19.7642 0.0903153 17.8123 0.00661047C15.8605 -0.0770944 13.9544 0.636804 12.5 1.99628ZM11.0358 4.1372L11.6167 4.74146C11.851 4.98559 12.1687 5.12274 12.5 5.12274C12.8313 5.12274 13.149 4.98559 13.3833 4.74146L13.9642 4.1372C14.4251 3.63968 14.9766 3.24285 15.5862 2.96984C16.1959 2.69684 16.8516 2.55314 17.5152 2.54713C18.1787 2.54112 18.8367 2.67292 19.4508 2.93484C20.065 3.19675 20.6229 3.58354 21.0921 4.07264C21.5613 4.56173 21.9324 5.14333 22.1836 5.78351C22.4349 6.42369 22.5613 7.10962 22.5556 7.80127C22.5498 8.49293 22.412 9.17646 22.1501 9.81199C21.8882 10.4475 21.5075 11.0223 21.0302 11.5028L12.5 20.396L3.96981 11.5028C3.05954 10.5204 2.55585 9.20457 2.56723 7.83876C2.57862 6.47296 3.10417 5.16646 4.03069 4.20066C4.9572 3.23485 6.21056 2.68702 7.5208 2.67515C8.83105 2.66328 10.0933 3.18833 11.0358 4.1372Z" fill="#393939" fill-opacity="0.7"/>
</svg>
