<svg width="25" height="25" viewBox="0 0 25 25" fill="none" xmlns="http://www.w3.org/2000/svg">
<path d="M11.435 1.72797C11.804 0.75734 13.196 0.75734 13.565 1.72799L15.9456 8.32203C16.1121 8.7599 16.5365 9.05 17.0106 9.05H22.8604C23.9405 9.05 24.4124 10.3958 23.5631 11.0541L19.4 14.8C19.0167 15.097 18.8679 15.6021 19.0302 16.0556L20.55 22.4994C20.9201 23.5335 19.721 24.4231 18.8164 23.7856L13.1611 20.1988C12.7657 19.9201 12.2344 19.9201 11.8389 20.1988L6.18368 23.7856C5.27901 24.4231 4.07999 23.5335 4.45 22.4994L5.96985 16.0556C6.13211 15.6021 5.98334 15.097 5.6 14.8L1.43693 11.0541C0.587566 10.3958 1.05948 9.05 2.13965 9.05H7.98932C8.46346 9.05 8.88784 8.7599 9.05433 8.32203L11.435 1.72797Z" stroke="#393939" stroke-opacity="0.7" stroke-width="1.5" stroke-linecap="round" stroke-linejoin="round"/>
</svg>
